<svg xmlns="http://www.w3.org/2000/svg" xmlns:xlink="http://www.w3.org/1999/xlink" version="1.1" x="0px" y="0px" style="enable-background:new 0 0 66.516 61.796;" xml:space="preserve" viewBox="0 0 66.52 82.8"><path d="M64.636,0.365c-1.282,2.64-2.674,5.229-4.215,7.728c-1.503,2.436-3.223,4.678-4.913,6.981  c-0.412,0.561-1.367,1.574-1.407,2.274c0.546-0.031,1.335-0.811,1.763-1.154c0.606-0.486,1.176-1.016,1.72-1.571  c1.065-1.086,2.025-2.27,2.952-3.473c0.36-0.467,0.722-0.953,1.079-1.449c-2.049,5.44-4.326,10.772-7.074,15.937  c-1.94,3.645-4.054,7.198-6.335,10.641c-1.08,1.63-2.184,3.255-3.363,4.816c-0.892,1.182-2.003,2.533-3.494,2.943  c-1.754,0.483-3.19-0.796-3.872-2.307c-0.772-1.708-0.602-3.644-0.526-5.466c0.133-3.194-0.38-7.754-4.252-8.501  c-1.502-0.29-2.995,0.194-4.334,0.847c-1.65,0.804-3.204,1.856-4.715,2.891c-3.318,2.272-6.437,4.846-9.266,7.704  C11.249,42.37,8.447,45.852,6,49.573c-1.256,1.91-2.391,3.904-3.427,5.941c-1.002,1.97-1.975,3.999-2.568,6.133  c-0.04,0.144,0.172,0.206,0.24,0.083c0.978-1.772,1.809-3.62,2.776-5.401c0.967-1.782,2.017-3.52,3.145-5.206  c2.278-3.405,4.837-6.61,7.683-9.557c2.832-2.932,5.922-5.634,9.229-8.017c1.61-1.16,3.271-2.268,4.993-3.256  c1.327-0.761,2.977-1.574,4.547-1.16c1.855,0.488,2.715,2.519,2.934,4.257c0.232,1.841-0.079,3.703-0.016,5.549  c0.103,3.003,1.874,6.968,5.5,6.541c3.327-0.392,5.384-4.191,7.078-6.656c2.322-3.38,4.489-6.865,6.482-10.449  c3.941-7.086,7.424-14.633,9.81-22.424c0.021,0.1,0.044,0.2,0.061,0.299c0.108,0.653,0.215,1.307,0.278,1.966  c0.124,1.282,0.161,2.573,0.111,3.86c-0.051,1.307-0.228,2.587-0.405,3.881c-0.179,1.313-0.524,2.583-0.651,3.904  c-0.03,0.317,0.246,0.185,0.372,0.107c0.204-0.126,0.451-0.652,0.565-0.869c1.385-2.628,1.536-5.995,1.711-8.897  c0.193-3.199-0.026-6.412-0.548-9.572C65.798,0.017,64.953-0.287,64.636,0.365z"/><text x="0" y="76.79599999999999" fill="#000000" font-size="5px" font-weight="bold" font-family="'Helvetica Neue', Helvetica, Arial-Unicode, Arial, Sans-serif">Created by Maria Zamchy</text><text x="0" y="81.79599999999999" fill="#000000" font-size="5px" font-weight="bold" font-family="'Helvetica Neue', Helvetica, Arial-Unicode, Arial, Sans-serif">from the Noun Project</text></svg>